<?xml version="1.0" encoding="utf-8"?>
<!-- Generator: Adobe Illustrator 25.2.0, SVG Export Plug-In . SVG Version: 6.00 Build 0)  -->
<svg version="1.1" id="Camada_1" xmlns="http://www.w3.org/2000/svg" xmlns:xlink="http://www.w3.org/1999/xlink" x="0px" y="0px"
	 viewBox="0 0 1920 1080" style="enable-background:new 0 0 1920 1080;" xml:space="preserve">
<style type="text/css">
	.st0{fill:#191919;}
	.st1{fill:#01FF4F;}
</style>
<g>
	<g>
		<g>
			<path class="st0" d="M904.52,584.7c9.07,0,16.42-7.35,16.42-16.42v-49.61c0-0.25,0.25-11.36,5.68-21.72
				c6.67-12.59,17.78-18.76,34.07-18.76s27.4,6.17,34.07,18.76c5.43,10.37,5.68,21.48,5.68,21.48v49.86
				c0,9.07,7.35,16.42,16.42,16.42h0c9.07,0,16.42-7.35,16.42-16.42v-49.86c0-1.73-0.25-18.52-8.64-35.3
				c-11.85-23.95-34.56-37.03-63.94-37.03c-29.38,0-51.84,13.33-63.94,37.03c-8.39,16.79-8.64,33.58-8.64,35.3v49.86
				C888.11,577.35,895.46,584.7,904.52,584.7L904.52,584.7z"/>
			<path class="st0" d="M755,445.69c8.72,0,15.79,7.07,15.79,15.79v50.72c0,0.25,0.24,11.44,5.46,21.88
				c6.41,12.68,17.1,18.9,32.77,18.9c15.67,0,26.36-6.22,32.77-18.9c5.22-10.45,5.46-21.64,5.46-21.64v-50.97
				c0-8.72,7.07-15.79,15.79-15.79h0c8.72,0,15.79,7.07,15.79,15.79v50.97c0,1.74-0.24,18.65-8.31,35.56
				c-11.4,24.12-33.24,37.3-61.5,37.3s-49.87-13.43-61.5-37.3c-8.07-16.91-8.31-33.82-8.31-35.56v-50.97
				C739.21,452.76,746.28,445.69,755,445.69L755,445.69z"/>
			<path class="st0" d="M1478.64,585.27c9.13,0,16.53-7.4,16.53-16.53v-49.96c0-0.25,0.25-11.44,5.72-21.88
				c6.71-12.68,17.9-18.89,34.31-18.89c16.41,0,27.59,6.22,34.31,18.89c5.47,10.44,5.72,21.63,5.72,21.63v50.21
				c0,9.13,7.4,16.53,16.53,16.53h0c9.13,0,16.53-7.4,16.53-16.53v-50.21c0-1.74-0.25-18.65-8.7-35.55
				c-11.93-24.11-34.8-37.29-64.39-37.29s-52.2,13.42-64.39,37.29c-8.45,16.9-8.7,33.81-8.7,35.55v50.21
				C1462.11,577.86,1469.51,585.27,1478.64,585.27L1478.64,585.27z"/>
			<path class="st0" d="M1316.84,569.53c0-8.72-7.07-15.79-15.79-15.79h-47.72c-0.24,0-10.92-0.24-20.9-5.46
				c-12.11-6.41-18.05-17.1-18.05-32.77c0-15.67,5.94-26.36,18.05-32.77c9.97-5.22,20.66-5.46,20.66-5.46h47.96
				c8.72,0,15.79-7.07,15.79-15.79v0c0-8.72-7.07-15.79-15.79-15.79h-47.96c-1.66,0-17.81,0.24-33.96,8.31
				c-23.03,11.4-35.62,33.24-35.62,61.5c0,28.26,12.82,49.87,35.62,61.5c16.15,8.07,32.3,8.31,33.96,8.31h47.96
				C1309.77,585.32,1316.84,578.25,1316.84,569.53L1316.84,569.53z"/>
			<g>
				<path class="st0" d="M1451.71,515.41c0,34.65-22.46,69.7-66.79,69.7c-45.11,0-67.18-35.04-67.18-69.7
					c0-34.65,22.07-69.5,67.18-69.5C1429.25,445.91,1451.71,480.75,1451.71,515.41z M1425.57,515.79c0-22.65-13.75-45.3-40.65-45.3
					c-27.3,0-40.85,22.65-40.85,45.3c0,22.46,13.55,44.91,40.85,44.91C1411.83,560.71,1425.57,538.25,1425.57,515.79z"/>
			</g>
			<path class="st0" d="M1141.92,403.3v26.41c0,8.73-7.08,15.81-15.81,15.81h-15.15c-1.66,0-17.83,0.24-34,8.32
				c-23.06,11.41-35.66,33.29-35.66,61.58c0,28.29,12.84,49.93,35.66,61.58c16.17,8.08,32.33,8.32,34,8.32h48.02
				c8.73,0,15.81-7.08,15.81-15.81l0,0c0-8.73-7.08-15.81-15.81-15.81h-47.78c-0.24,0-10.94-0.24-20.92-5.47
				c-12.12-6.42-18.07-17.12-18.07-32.81c0-15.69,5.95-26.39,18.07-32.81c9.99-5.23,20.69-5.47,20.69-5.47h15.15
				c8.73,0,15.81,7.08,15.81,15.81v23.92c0,8.73,7.08,15.81,15.81,15.81h1.25c8.73,0,15.81-7.08,15.81-15.81v-39.74v-31.62V403.3
				c0-8.73-7.08-15.81-15.81-15.81h-1.25C1149,387.49,1141.92,394.57,1141.92,403.3z"/>
		</g>
	</g>
	<g>
		<g>
			<path class="st1" d="M532.83,440.88c0,11.15,9.04,20.18,20.18,20.18l61,0c0.3,0,13.96,0.3,26.71,6.98
				c15.48,8.2,23.07,21.86,23.07,41.89s-7.59,33.69-23.07,41.89c-12.75,6.68-26.41,6.98-26.41,6.98l-61.3,0
				c-11.15,0-20.18,9.04-20.18,20.18v0c0,11.15,9.04,20.18,20.18,20.18l61.3,0c2.12,0,22.77-0.3,43.4-10.62
				c29.44-14.57,45.53-42.49,45.53-78.61s-16.39-63.74-45.53-78.61c-20.64-10.32-41.28-10.62-43.4-10.62l-61.3,0
				C541.87,420.69,532.83,429.73,532.83,440.88z"/>
			<path class="st1" d="M505.26,593.92l0-69.26h38.48c8.21,0,14.87-6.66,14.87-14.87s-6.66-14.87-14.87-14.87h-38.48l0-69.26
				c0-3.65-2.74-6.39-5.47-6.39l-120.79,0c-2.13,0-23.12,0.61-43.51,10.65c-28.29,15.21-46.25,44.11-46.25,80.02
				c0,36.81,16.73,64.8,45.94,79.71c20.69,10.34,41.68,10.65,43.81,10.65l120.79,0C502.52,600.31,505.26,597.87,505.26,593.92z
				 M377.49,569.46c-0.36,0-15.21-0.41-29.32-9.03c-17.01-10.26-24.98-26.69-24.98-50.5c0-23.4,8.32-40.24,24.98-50.91
				c14.84-8.62,28.95-8.62,28.95-8.62l100.99,0v44.53l-104.48,0c-8.21,0-14.87,6.66-14.87,14.87s6.66,14.87,14.87,14.87l104.48,0
				l0,44.8H377.49z"/>
		</g>
	</g>
</g>
</svg>
